<mxfile modified="2020-11-28T04:11:09.505Z" host="app.diagrams.net" agent="5.0 (Windows)" etag="BHdOz9Hnfptz-aoy6QJ4" version="13.10.4" type="github">
  <diagram id="Ht1M8jgEwFfnCIfOTk4-" name="Page-1">
    <mxGraphModel dx="2240" dy="1400" grid="1" gridSize="10" guides="1" tooltips="1" connect="1" arrows="1" fold="1" page="1" pageScale="1" pageWidth="1169" pageHeight="827" math="0" shadow="0">
      <root>
        <mxCell id="0" />
        <mxCell id="1" parent="0" />
        <mxCell id="TnNeL-RazSUmIN3Nqa5R-61" value="AWS Cloud" style="points=[[0,0],[0.25,0],[0.5,0],[0.75,0],[1,0],[1,0.25],[1,0.5],[1,0.75],[1,1],[0.75,1],[0.5,1],[0.25,1],[0,1],[0,0.75],[0,0.5],[0,0.25]];outlineConnect=0;gradientColor=none;html=1;whiteSpace=wrap;fontSize=12;fontStyle=0;shape=mxgraph.aws4.group;grIcon=mxgraph.aws4.group_aws_cloud_alt;strokeColor=#232F3E;fillColor=none;verticalAlign=top;align=left;spacingLeft=30;fontColor=#232F3E;dashed=0;" vertex="1" parent="1">
          <mxGeometry x="90" y="-60" width="970" height="690" as="geometry" />
        </mxCell>
        <mxCell id="TnNeL-RazSUmIN3Nqa5R-31" style="edgeStyle=orthogonalEdgeStyle;rounded=0;orthogonalLoop=1;jettySize=auto;html=1;entryX=0.75;entryY=1;entryDx=0;entryDy=0;" edge="1" parent="1" source="TnNeL-RazSUmIN3Nqa5R-8" target="TnNeL-RazSUmIN3Nqa5R-22">
          <mxGeometry relative="1" as="geometry">
            <Array as="points">
              <mxPoint x="530" y="344" />
              <mxPoint x="448" y="344" />
            </Array>
          </mxGeometry>
        </mxCell>
        <mxCell id="TnNeL-RazSUmIN3Nqa5R-65" value="Interact with API" style="edgeLabel;html=1;align=center;verticalAlign=middle;resizable=0;points=[];" vertex="1" connectable="0" parent="TnNeL-RazSUmIN3Nqa5R-31">
          <mxGeometry x="-0.2898" relative="1" as="geometry">
            <mxPoint x="-19.41" y="-14" as="offset" />
          </mxGeometry>
        </mxCell>
        <mxCell id="TnNeL-RazSUmIN3Nqa5R-8" value="Cluster Fargate" style="fillColor=#ffe6cc;strokeColor=#d79b00;dashed=0;verticalAlign=top;fontStyle=0;" vertex="1" parent="1">
          <mxGeometry x="290" y="374" width="350" height="186" as="geometry" />
        </mxCell>
        <mxCell id="TnNeL-RazSUmIN3Nqa5R-1" value="" style="outlineConnect=0;fontColor=#232F3E;gradientColor=#4D72F3;gradientDirection=north;fillColor=#3334B9;strokeColor=#ffffff;dashed=0;verticalLabelPosition=bottom;verticalAlign=top;align=center;html=1;fontSize=12;fontStyle=0;aspect=fixed;shape=mxgraph.aws4.resourceIcon;resIcon=mxgraph.aws4.dynamodb;" vertex="1" parent="1">
          <mxGeometry x="570" y="218" width="78" height="78" as="geometry" />
        </mxCell>
        <mxCell id="TnNeL-RazSUmIN3Nqa5R-35" style="edgeStyle=orthogonalEdgeStyle;rounded=0;orthogonalLoop=1;jettySize=auto;html=1;" edge="1" parent="1" source="TnNeL-RazSUmIN3Nqa5R-2" target="TnNeL-RazSUmIN3Nqa5R-3">
          <mxGeometry relative="1" as="geometry" />
        </mxCell>
        <mxCell id="TnNeL-RazSUmIN3Nqa5R-2" value="" style="outlineConnect=0;fontColor=#232F3E;gradientColor=#945DF2;gradientDirection=north;fillColor=#5A30B5;strokeColor=#ffffff;dashed=0;verticalLabelPosition=bottom;verticalAlign=top;align=center;html=1;fontSize=12;fontStyle=0;aspect=fixed;shape=mxgraph.aws4.resourceIcon;resIcon=mxgraph.aws4.cloudfront;" vertex="1" parent="1">
          <mxGeometry x="60" y="80" width="78" height="78" as="geometry" />
        </mxCell>
        <mxCell id="TnNeL-RazSUmIN3Nqa5R-3" value="" style="outlineConnect=0;fontColor=#232F3E;gradientColor=#60A337;gradientDirection=north;fillColor=#277116;strokeColor=#ffffff;dashed=0;verticalLabelPosition=bottom;verticalAlign=top;align=center;html=1;fontSize=12;fontStyle=0;aspect=fixed;shape=mxgraph.aws4.resourceIcon;resIcon=mxgraph.aws4.s3;" vertex="1" parent="1">
          <mxGeometry x="340" y="80" width="78" height="78" as="geometry" />
        </mxCell>
        <mxCell id="TnNeL-RazSUmIN3Nqa5R-24" style="edgeStyle=orthogonalEdgeStyle;rounded=0;orthogonalLoop=1;jettySize=auto;html=1;" edge="1" parent="1" source="TnNeL-RazSUmIN3Nqa5R-4" target="TnNeL-RazSUmIN3Nqa5R-2">
          <mxGeometry relative="1" as="geometry">
            <Array as="points">
              <mxPoint x="30" y="187" />
              <mxPoint x="30" y="119" />
            </Array>
          </mxGeometry>
        </mxCell>
        <mxCell id="TnNeL-RazSUmIN3Nqa5R-25" style="edgeStyle=orthogonalEdgeStyle;rounded=0;orthogonalLoop=1;jettySize=auto;html=1;" edge="1" parent="1" source="TnNeL-RazSUmIN3Nqa5R-4" target="TnNeL-RazSUmIN3Nqa5R-19">
          <mxGeometry relative="1" as="geometry">
            <Array as="points">
              <mxPoint x="30" y="187" />
              <mxPoint x="30" y="257" />
            </Array>
          </mxGeometry>
        </mxCell>
        <mxCell id="TnNeL-RazSUmIN3Nqa5R-4" value="" style="outlineConnect=0;dashed=0;verticalLabelPosition=bottom;verticalAlign=top;align=center;html=1;shape=mxgraph.aws3.user;fillColor=#D2D3D3;gradientColor=none;" vertex="1" parent="1">
          <mxGeometry x="-130" y="155" width="45" height="63" as="geometry" />
        </mxCell>
        <mxCell id="TnNeL-RazSUmIN3Nqa5R-5" value="API Discord" style="shape=image;html=1;verticalAlign=top;verticalLabelPosition=bottom;labelBackgroundColor=#ffffff;imageAspect=0;aspect=fixed;image=https://cdn0.iconfinder.com/data/icons/free-social-media-set/24/discord-128.png" vertex="1" parent="1">
          <mxGeometry x="430" y="670" width="78" height="78" as="geometry" />
        </mxCell>
        <mxCell id="TnNeL-RazSUmIN3Nqa5R-37" style="edgeStyle=orthogonalEdgeStyle;rounded=0;orthogonalLoop=1;jettySize=auto;html=1;" edge="1" parent="1" source="TnNeL-RazSUmIN3Nqa5R-6" target="TnNeL-RazSUmIN3Nqa5R-8">
          <mxGeometry relative="1" as="geometry" />
        </mxCell>
        <mxCell id="TnNeL-RazSUmIN3Nqa5R-6" value="Cluster Fargate" style="outlineConnect=0;fontColor=#232F3E;gradientColor=#F78E04;gradientDirection=north;fillColor=#D05C17;strokeColor=#ffffff;dashed=0;verticalLabelPosition=bottom;verticalAlign=top;align=center;html=1;fontSize=12;fontStyle=0;aspect=fixed;shape=mxgraph.aws4.resourceIcon;resIcon=mxgraph.aws4.fargate;" vertex="1" parent="1">
          <mxGeometry x="720" y="374" width="78" height="78" as="geometry" />
        </mxCell>
        <mxCell id="TnNeL-RazSUmIN3Nqa5R-13" style="edgeStyle=orthogonalEdgeStyle;rounded=0;orthogonalLoop=1;jettySize=auto;html=1;" edge="1" parent="1" source="TnNeL-RazSUmIN3Nqa5R-7" target="TnNeL-RazSUmIN3Nqa5R-5">
          <mxGeometry relative="1" as="geometry">
            <Array as="points">
              <mxPoint x="380" y="610" />
              <mxPoint x="469" y="610" />
            </Array>
          </mxGeometry>
        </mxCell>
        <mxCell id="TnNeL-RazSUmIN3Nqa5R-7" value="Docker Instance" style="shape=image;html=1;verticalAlign=top;verticalLabelPosition=bottom;labelBackgroundColor=#ffffff;imageAspect=0;aspect=fixed;image=https://cdn4.iconfinder.com/data/icons/logos-and-brands/512/97_Docker_logo_logos-128.png" vertex="1" parent="1">
          <mxGeometry x="338" y="408" width="58" height="58" as="geometry" />
        </mxCell>
        <mxCell id="TnNeL-RazSUmIN3Nqa5R-14" style="edgeStyle=orthogonalEdgeStyle;rounded=0;orthogonalLoop=1;jettySize=auto;html=1;" edge="1" parent="1" source="TnNeL-RazSUmIN3Nqa5R-10" target="TnNeL-RazSUmIN3Nqa5R-5">
          <mxGeometry relative="1" as="geometry" />
        </mxCell>
        <mxCell id="TnNeL-RazSUmIN3Nqa5R-16" value="&lt;div&gt;Listen on API&lt;/div&gt;&lt;div&gt;with set of token&lt;br&gt;&lt;/div&gt;" style="edgeLabel;html=1;align=center;verticalAlign=middle;resizable=0;points=[];" vertex="1" connectable="0" parent="TnNeL-RazSUmIN3Nqa5R-14">
          <mxGeometry x="-0.3193" relative="1" as="geometry">
            <mxPoint y="4" as="offset" />
          </mxGeometry>
        </mxCell>
        <mxCell id="TnNeL-RazSUmIN3Nqa5R-10" value="Docker Instance" style="shape=image;html=1;verticalAlign=top;verticalLabelPosition=bottom;labelBackgroundColor=#ffffff;imageAspect=0;aspect=fixed;image=https://cdn4.iconfinder.com/data/icons/logos-and-brands/512/97_Docker_logo_logos-128.png" vertex="1" parent="1">
          <mxGeometry x="440" y="408" width="58" height="58" as="geometry" />
        </mxCell>
        <mxCell id="TnNeL-RazSUmIN3Nqa5R-15" style="edgeStyle=orthogonalEdgeStyle;rounded=0;orthogonalLoop=1;jettySize=auto;html=1;" edge="1" parent="1" source="TnNeL-RazSUmIN3Nqa5R-11" target="TnNeL-RazSUmIN3Nqa5R-5">
          <mxGeometry relative="1" as="geometry">
            <Array as="points">
              <mxPoint x="560" y="610" />
              <mxPoint x="469" y="610" />
            </Array>
          </mxGeometry>
        </mxCell>
        <mxCell id="TnNeL-RazSUmIN3Nqa5R-11" value="Docker Instance" style="shape=image;html=1;verticalAlign=top;verticalLabelPosition=bottom;labelBackgroundColor=#ffffff;imageAspect=0;aspect=fixed;image=https://cdn4.iconfinder.com/data/icons/logos-and-brands/512/97_Docker_logo_logos-128.png" vertex="1" parent="1">
          <mxGeometry x="540" y="408" width="58" height="58" as="geometry" />
        </mxCell>
        <mxCell id="TnNeL-RazSUmIN3Nqa5R-39" style="edgeStyle=orthogonalEdgeStyle;rounded=0;orthogonalLoop=1;jettySize=auto;html=1;entryX=1;entryY=0.5;entryDx=0;entryDy=0;" edge="1" parent="1" source="TnNeL-RazSUmIN3Nqa5R-12" target="TnNeL-RazSUmIN3Nqa5R-8">
          <mxGeometry relative="1" as="geometry" />
        </mxCell>
        <mxCell id="TnNeL-RazSUmIN3Nqa5R-12" value="&lt;div&gt;Autoscaling based on&lt;/div&gt;&lt;div&gt;instance metrics&lt;br&gt;&lt;/div&gt;" style="outlineConnect=0;fontColor=#232F3E;gradientColor=#F34482;gradientDirection=north;fillColor=#BC1356;strokeColor=#ffffff;dashed=0;verticalLabelPosition=bottom;verticalAlign=top;align=center;html=1;fontSize=12;fontStyle=0;aspect=fixed;shape=mxgraph.aws4.resourceIcon;resIcon=mxgraph.aws4.application_auto_scaling;" vertex="1" parent="1">
          <mxGeometry x="720" y="492" width="48" height="48" as="geometry" />
        </mxCell>
        <mxCell id="TnNeL-RazSUmIN3Nqa5R-17" value="&lt;div&gt;Listen on API&lt;/div&gt;&lt;div&gt;with set of token&lt;br&gt;&lt;/div&gt;" style="edgeLabel;html=1;align=center;verticalAlign=middle;resizable=0;points=[];" vertex="1" connectable="0" parent="1">
          <mxGeometry x="469" y="540" as="geometry">
            <mxPoint x="93" y="-1" as="offset" />
          </mxGeometry>
        </mxCell>
        <mxCell id="TnNeL-RazSUmIN3Nqa5R-18" value="&lt;div&gt;Listen on API&lt;/div&gt;&lt;div&gt;with set of token&lt;br&gt;&lt;/div&gt;" style="edgeLabel;html=1;align=center;verticalAlign=middle;resizable=0;points=[];" vertex="1" connectable="0" parent="1">
          <mxGeometry x="380" y="540" as="geometry" />
        </mxCell>
        <mxCell id="TnNeL-RazSUmIN3Nqa5R-23" style="edgeStyle=orthogonalEdgeStyle;rounded=0;orthogonalLoop=1;jettySize=auto;html=1;" edge="1" parent="1" source="TnNeL-RazSUmIN3Nqa5R-19" target="TnNeL-RazSUmIN3Nqa5R-22">
          <mxGeometry relative="1" as="geometry" />
        </mxCell>
        <mxCell id="TnNeL-RazSUmIN3Nqa5R-19" value="" style="outlineConnect=0;fontColor=#232F3E;gradientColor=#945DF2;gradientDirection=north;fillColor=#5A30B5;strokeColor=#ffffff;dashed=0;verticalLabelPosition=bottom;verticalAlign=top;align=center;html=1;fontSize=12;fontStyle=0;aspect=fixed;shape=mxgraph.aws4.resourceIcon;resIcon=mxgraph.aws4.api_gateway;" vertex="1" parent="1">
          <mxGeometry x="60" y="218" width="78" height="78" as="geometry" />
        </mxCell>
        <mxCell id="TnNeL-RazSUmIN3Nqa5R-20" value="" style="outlineConnect=0;fontColor=#232F3E;gradientColor=#F78E04;gradientDirection=north;fillColor=#D05C17;strokeColor=#ffffff;dashed=0;verticalLabelPosition=bottom;verticalAlign=top;align=center;html=1;fontSize=12;fontStyle=0;aspect=fixed;shape=mxgraph.aws4.resourceIcon;resIcon=mxgraph.aws4.lambda;" vertex="1" parent="1">
          <mxGeometry x="338" y="245" width="48" height="48" as="geometry" />
        </mxCell>
        <mxCell id="TnNeL-RazSUmIN3Nqa5R-21" value="" style="outlineConnect=0;fontColor=#232F3E;gradientColor=#F78E04;gradientDirection=north;fillColor=#D05C17;strokeColor=#ffffff;dashed=0;verticalLabelPosition=bottom;verticalAlign=top;align=center;html=1;fontSize=12;fontStyle=0;aspect=fixed;shape=mxgraph.aws4.resourceIcon;resIcon=mxgraph.aws4.lambda;" vertex="1" parent="1">
          <mxGeometry x="410" y="245" width="48" height="48" as="geometry" />
        </mxCell>
        <mxCell id="TnNeL-RazSUmIN3Nqa5R-28" style="edgeStyle=orthogonalEdgeStyle;rounded=0;orthogonalLoop=1;jettySize=auto;html=1;" edge="1" parent="1" source="TnNeL-RazSUmIN3Nqa5R-22" target="TnNeL-RazSUmIN3Nqa5R-27">
          <mxGeometry relative="1" as="geometry">
            <Array as="points">
              <mxPoint x="479" y="180" />
              <mxPoint x="479" y="180" />
            </Array>
          </mxGeometry>
        </mxCell>
        <mxCell id="TnNeL-RazSUmIN3Nqa5R-30" style="edgeStyle=orthogonalEdgeStyle;rounded=0;orthogonalLoop=1;jettySize=auto;html=1;" edge="1" parent="1" source="TnNeL-RazSUmIN3Nqa5R-22" target="TnNeL-RazSUmIN3Nqa5R-1">
          <mxGeometry relative="1" as="geometry" />
        </mxCell>
        <mxCell id="TnNeL-RazSUmIN3Nqa5R-66" style="edgeStyle=orthogonalEdgeStyle;rounded=0;orthogonalLoop=1;jettySize=auto;html=1;entryX=0.171;entryY=0.032;entryDx=0;entryDy=0;entryPerimeter=0;" edge="1" parent="1" source="TnNeL-RazSUmIN3Nqa5R-22" target="TnNeL-RazSUmIN3Nqa5R-8">
          <mxGeometry relative="1" as="geometry" />
        </mxCell>
        <mxCell id="TnNeL-RazSUmIN3Nqa5R-67" value="Manage bots and instances" style="edgeLabel;html=1;align=center;verticalAlign=middle;resizable=0;points=[];" vertex="1" connectable="0" parent="TnNeL-RazSUmIN3Nqa5R-66">
          <mxGeometry x="-0.2852" y="2" relative="1" as="geometry">
            <mxPoint x="-41.53" y="-16" as="offset" />
          </mxGeometry>
        </mxCell>
        <mxCell id="TnNeL-RazSUmIN3Nqa5R-22" value="Lambdas" style="fillColor=none;strokeColor=#5A6C86;dashed=1;verticalAlign=top;fontStyle=0;fontColor=#5A6C86;" vertex="1" parent="1">
          <mxGeometry x="320" y="200" width="170" height="114" as="geometry" />
        </mxCell>
        <mxCell id="TnNeL-RazSUmIN3Nqa5R-26" value="" style="shape=image;html=1;verticalAlign=top;verticalLabelPosition=bottom;labelBackgroundColor=#ffffff;imageAspect=0;aspect=fixed;image=https://cdn0.iconfinder.com/data/icons/free-social-media-set/24/discord-128.png" vertex="1" parent="1">
          <mxGeometry x="205" y="-180" width="88" height="88" as="geometry" />
        </mxCell>
        <mxCell id="TnNeL-RazSUmIN3Nqa5R-32" style="edgeStyle=orthogonalEdgeStyle;rounded=0;orthogonalLoop=1;jettySize=auto;html=1;" edge="1" parent="1" source="TnNeL-RazSUmIN3Nqa5R-27" target="TnNeL-RazSUmIN3Nqa5R-26">
          <mxGeometry relative="1" as="geometry">
            <Array as="points">
              <mxPoint x="249" />
            </Array>
          </mxGeometry>
        </mxCell>
        <mxCell id="TnNeL-RazSUmIN3Nqa5R-27" value="" style="outlineConnect=0;fontColor=#232F3E;gradientColor=#F54749;gradientDirection=north;fillColor=#C7131F;strokeColor=#ffffff;dashed=0;verticalLabelPosition=bottom;verticalAlign=top;align=center;html=1;fontSize=12;fontStyle=0;aspect=fixed;shape=mxgraph.aws4.resourceIcon;resIcon=mxgraph.aws4.cognito;" vertex="1" parent="1">
          <mxGeometry x="440" y="-30" width="78" height="78" as="geometry" />
        </mxCell>
        <mxCell id="TnNeL-RazSUmIN3Nqa5R-48" style="edgeStyle=orthogonalEdgeStyle;rounded=0;orthogonalLoop=1;jettySize=auto;html=1;" edge="1" parent="1" source="TnNeL-RazSUmIN3Nqa5R-40" target="TnNeL-RazSUmIN3Nqa5R-45">
          <mxGeometry relative="1" as="geometry">
            <Array as="points">
              <mxPoint x="990" y="7" />
              <mxPoint x="990" y="7" />
            </Array>
          </mxGeometry>
        </mxCell>
        <mxCell id="TnNeL-RazSUmIN3Nqa5R-57" value="Webhook : on Pull Request Merged" style="edgeLabel;html=1;align=center;verticalAlign=middle;resizable=0;points=[];" vertex="1" connectable="0" parent="TnNeL-RazSUmIN3Nqa5R-48">
          <mxGeometry x="-0.2942" relative="1" as="geometry">
            <mxPoint x="12.94" y="-0.06" as="offset" />
          </mxGeometry>
        </mxCell>
        <mxCell id="TnNeL-RazSUmIN3Nqa5R-40" value="&lt;b&gt;GitHub &lt;/b&gt;: FrontEnd" style="shape=image;html=1;verticalAlign=top;verticalLabelPosition=bottom;labelBackgroundColor=#ffffff;imageAspect=0;aspect=fixed;image=https://cdn4.iconfinder.com/data/icons/iconsimple-logotypes/512/github-128.png" vertex="1" parent="1">
          <mxGeometry x="1230" y="-30" width="78" height="78" as="geometry" />
        </mxCell>
        <mxCell id="TnNeL-RazSUmIN3Nqa5R-50" style="edgeStyle=orthogonalEdgeStyle;rounded=0;orthogonalLoop=1;jettySize=auto;html=1;" edge="1" parent="1" source="TnNeL-RazSUmIN3Nqa5R-43" target="TnNeL-RazSUmIN3Nqa5R-46">
          <mxGeometry relative="1" as="geometry" />
        </mxCell>
        <mxCell id="TnNeL-RazSUmIN3Nqa5R-58" value="Webhook : on Pull Request Merged" style="edgeLabel;html=1;align=center;verticalAlign=middle;resizable=0;points=[];" vertex="1" connectable="0" parent="TnNeL-RazSUmIN3Nqa5R-50">
          <mxGeometry x="0.2698" y="1" relative="1" as="geometry">
            <mxPoint x="32.86" y="-1" as="offset" />
          </mxGeometry>
        </mxCell>
        <mxCell id="TnNeL-RazSUmIN3Nqa5R-43" value="&lt;b&gt;GitHub &lt;/b&gt;: Api" style="shape=image;html=1;verticalAlign=top;verticalLabelPosition=bottom;labelBackgroundColor=#ffffff;imageAspect=0;aspect=fixed;image=https://cdn4.iconfinder.com/data/icons/iconsimple-logotypes/512/github-128.png" vertex="1" parent="1">
          <mxGeometry x="1231" y="171" width="76" height="76" as="geometry" />
        </mxCell>
        <mxCell id="TnNeL-RazSUmIN3Nqa5R-56" style="edgeStyle=orthogonalEdgeStyle;rounded=0;orthogonalLoop=1;jettySize=auto;html=1;" edge="1" parent="1" source="TnNeL-RazSUmIN3Nqa5R-44" target="TnNeL-RazSUmIN3Nqa5R-47">
          <mxGeometry relative="1" as="geometry">
            <Array as="points">
              <mxPoint x="1039" y="409" />
              <mxPoint x="1039" y="409" />
            </Array>
          </mxGeometry>
        </mxCell>
        <mxCell id="TnNeL-RazSUmIN3Nqa5R-59" value="Webhook : on Pull Request Merged" style="edgeLabel;html=1;align=center;verticalAlign=middle;resizable=0;points=[];" vertex="1" connectable="0" parent="TnNeL-RazSUmIN3Nqa5R-56">
          <mxGeometry x="0.0935" y="-1" relative="1" as="geometry">
            <mxPoint x="8.41" y="1.0600000000000023" as="offset" />
          </mxGeometry>
        </mxCell>
        <mxCell id="TnNeL-RazSUmIN3Nqa5R-44" value="&lt;b&gt;GitHub &lt;/b&gt;: Docker image" style="shape=image;html=1;verticalAlign=top;verticalLabelPosition=bottom;labelBackgroundColor=#ffffff;imageAspect=0;aspect=fixed;image=https://cdn4.iconfinder.com/data/icons/iconsimple-logotypes/512/github-128.png" vertex="1" parent="1">
          <mxGeometry x="1231" y="370" width="76" height="76" as="geometry" />
        </mxCell>
        <mxCell id="TnNeL-RazSUmIN3Nqa5R-49" style="edgeStyle=orthogonalEdgeStyle;rounded=0;orthogonalLoop=1;jettySize=auto;html=1;" edge="1" parent="1" source="TnNeL-RazSUmIN3Nqa5R-45" target="TnNeL-RazSUmIN3Nqa5R-3">
          <mxGeometry relative="1" as="geometry">
            <Array as="points">
              <mxPoint x="670" y="7" />
              <mxPoint x="670" y="120" />
            </Array>
          </mxGeometry>
        </mxCell>
        <mxCell id="TnNeL-RazSUmIN3Nqa5R-52" value="Upload" style="edgeLabel;html=1;align=center;verticalAlign=middle;resizable=0;points=[];" vertex="1" connectable="0" parent="TnNeL-RazSUmIN3Nqa5R-49">
          <mxGeometry x="0.2606" y="1" relative="1" as="geometry">
            <mxPoint as="offset" />
          </mxGeometry>
        </mxCell>
        <mxCell id="TnNeL-RazSUmIN3Nqa5R-45" value="&lt;b&gt;CodePipeline&lt;/b&gt;" style="outlineConnect=0;fontColor=#232F3E;gradientColor=#4D72F3;gradientDirection=north;fillColor=#3334B9;strokeColor=#ffffff;dashed=0;verticalLabelPosition=bottom;verticalAlign=top;align=center;html=1;fontSize=12;fontStyle=0;aspect=fixed;shape=mxgraph.aws4.resourceIcon;resIcon=mxgraph.aws4.codepipeline;" vertex="1" parent="1">
          <mxGeometry x="720" y="-32" width="78" height="78" as="geometry" />
        </mxCell>
        <mxCell id="TnNeL-RazSUmIN3Nqa5R-51" style="edgeStyle=orthogonalEdgeStyle;rounded=0;orthogonalLoop=1;jettySize=auto;html=1;entryX=1;entryY=0.25;entryDx=0;entryDy=0;" edge="1" parent="1" source="TnNeL-RazSUmIN3Nqa5R-46" target="TnNeL-RazSUmIN3Nqa5R-22">
          <mxGeometry relative="1" as="geometry">
            <Array as="points">
              <mxPoint x="550" y="190" />
              <mxPoint x="550" y="229" />
            </Array>
          </mxGeometry>
        </mxCell>
        <mxCell id="TnNeL-RazSUmIN3Nqa5R-53" value="Update" style="edgeLabel;html=1;align=center;verticalAlign=middle;resizable=0;points=[];" vertex="1" connectable="0" parent="TnNeL-RazSUmIN3Nqa5R-51">
          <mxGeometry x="-0.14" y="1" relative="1" as="geometry">
            <mxPoint as="offset" />
          </mxGeometry>
        </mxCell>
        <mxCell id="TnNeL-RazSUmIN3Nqa5R-46" value="&lt;b&gt;CodePipeline&lt;/b&gt;" style="outlineConnect=0;fontColor=#232F3E;gradientColor=#4D72F3;gradientDirection=north;fillColor=#3334B9;strokeColor=#ffffff;dashed=0;verticalLabelPosition=bottom;verticalAlign=top;align=center;html=1;fontSize=12;fontStyle=0;aspect=fixed;shape=mxgraph.aws4.resourceIcon;resIcon=mxgraph.aws4.codepipeline;" vertex="1" parent="1">
          <mxGeometry x="880" y="170" width="78" height="78" as="geometry" />
        </mxCell>
        <mxCell id="TnNeL-RazSUmIN3Nqa5R-54" style="edgeStyle=orthogonalEdgeStyle;rounded=0;orthogonalLoop=1;jettySize=auto;html=1;" edge="1" parent="1" source="TnNeL-RazSUmIN3Nqa5R-47" target="TnNeL-RazSUmIN3Nqa5R-6">
          <mxGeometry relative="1" as="geometry">
            <Array as="points">
              <mxPoint x="870" y="413" />
              <mxPoint x="870" y="413" />
            </Array>
          </mxGeometry>
        </mxCell>
        <mxCell id="TnNeL-RazSUmIN3Nqa5R-55" value="Update" style="edgeLabel;html=1;align=center;verticalAlign=middle;resizable=0;points=[];" vertex="1" connectable="0" parent="TnNeL-RazSUmIN3Nqa5R-54">
          <mxGeometry x="0.3266" y="-1" relative="1" as="geometry">
            <mxPoint x="14.44" y="-12" as="offset" />
          </mxGeometry>
        </mxCell>
        <mxCell id="TnNeL-RazSUmIN3Nqa5R-47" value="&lt;b&gt;CodePipeline&lt;/b&gt;" style="outlineConnect=0;fontColor=#232F3E;gradientColor=#4D72F3;gradientDirection=north;fillColor=#3334B9;strokeColor=#ffffff;dashed=0;verticalLabelPosition=bottom;verticalAlign=top;align=center;html=1;fontSize=12;fontStyle=0;aspect=fixed;shape=mxgraph.aws4.resourceIcon;resIcon=mxgraph.aws4.codepipeline;" vertex="1" parent="1">
          <mxGeometry x="880" y="370" width="78" height="78" as="geometry" />
        </mxCell>
        <mxCell id="TnNeL-RazSUmIN3Nqa5R-62" style="edgeStyle=orthogonalEdgeStyle;rounded=0;orthogonalLoop=1;jettySize=auto;html=1;" edge="1" parent="1" source="TnNeL-RazSUmIN3Nqa5R-4" target="TnNeL-RazSUmIN3Nqa5R-26">
          <mxGeometry relative="1" as="geometry">
            <mxPoint x="55" y="186.5" as="sourcePoint" />
            <mxPoint x="249" y="-32" as="targetPoint" />
            <Array as="points">
              <mxPoint x="30" y="187" />
              <mxPoint x="30" y="-136" />
            </Array>
          </mxGeometry>
        </mxCell>
        <mxCell id="TnNeL-RazSUmIN3Nqa5R-63" value="Use Discord Credentials for Auth" style="edgeLabel;html=1;align=center;verticalAlign=middle;resizable=0;points=[];" vertex="1" connectable="0" parent="TnNeL-RazSUmIN3Nqa5R-62">
          <mxGeometry x="-0.0277" y="3" relative="1" as="geometry">
            <mxPoint x="92" y="-71.5" as="offset" />
          </mxGeometry>
        </mxCell>
        <mxCell id="TnNeL-RazSUmIN3Nqa5R-64" value="&lt;h1 align=&quot;justify&quot;&gt;README&lt;/h1&gt;&lt;p align=&quot;justify&quot;&gt;&lt;b&gt;&lt;font style=&quot;font-size: 14px&quot;&gt;Project&lt;/font&gt;&lt;/b&gt;&lt;/p&gt;&lt;p align=&quot;justify&quot;&gt;The goal is to allow discord users to create personalized bots using a simple interface. Then the user put his API Key to allow the bot to access Discord and act in server where it is added.&lt;/p&gt;&lt;p align=&quot;justify&quot;&gt;Each docker instance can host X bots, when this limit is reached, a new Docker instance is created.&lt;/p&gt;&lt;p align=&quot;justify&quot;&gt;Every 2 minutes, each bot edit a line on DynamoDB as heartbeat. If a bot is supposed to be active but shows no heartbeat, a lambda function force it&#39;s activation on a non-full Docker image.&lt;/p&gt;&lt;p align=&quot;justify&quot;&gt;When there is too many docker instances for the number of discord bot, the oldest instance is shutdown and the hosted bots are shared between the newest instances.&lt;/p&gt;&lt;p align=&quot;justify&quot;&gt;&lt;b&gt;&lt;font style=&quot;font-size: 14px&quot;&gt;Stack&lt;/font&gt;&lt;/b&gt;&lt;/p&gt;&lt;ul&gt;&lt;li&gt;&lt;b&gt;Front-end : &lt;/b&gt;ReactJS, Redux&lt;/li&gt;&lt;li&gt;&lt;b&gt;Back-end : NodeJS&lt;/b&gt;, Serverless Framework, DiscordJS&lt;br&gt;&lt;/li&gt;&lt;/ul&gt;" style="text;html=1;strokeColor=none;fillColor=none;spacing=5;spacingTop=-20;whiteSpace=wrap;overflow=hidden;rounded=0;" vertex="1" parent="1">
          <mxGeometry x="-510" y="-48.5" width="310" height="470" as="geometry" />
        </mxCell>
      </root>
    </mxGraphModel>
  </diagram>
</mxfile>
